<svg width="120" height="120" viewBox="0 0 120 120" fill="none" xmlns="http://www.w3.org/2000/svg">
<rect width="120" height="120" rx="20" fill="black"/>
<path d="M14.2116 73V52.6364H21.848C23.4124 52.6364 24.7249 52.928 25.7855 53.5114C26.8527 54.0947 27.6581 54.8968 28.2017 55.9176C28.7519 56.9318 29.027 58.0852 29.027 59.3778C29.027 60.6837 28.7519 61.8437 28.2017 62.858C27.6515 63.8722 26.8395 64.6709 25.7656 65.2543C24.6918 65.831 23.3693 66.1193 21.7983 66.1193H16.7372V63.0866H21.3011C22.2159 63.0866 22.965 62.9276 23.5483 62.6094C24.1316 62.2912 24.5625 61.8537 24.8409 61.2969C25.1259 60.7401 25.2685 60.1004 25.2685 59.3778C25.2685 58.6553 25.1259 58.0189 24.8409 57.4688C24.5625 56.9186 24.1283 56.491 23.5384 56.1861C22.955 55.8745 22.2027 55.7188 21.2812 55.7188H17.9006V73H14.2116ZM32.0721 73V57.7273H35.5621V60.2727H35.7212C35.9996 59.3911 36.4769 58.7116 37.1531 58.2344C37.8358 57.7505 38.6147 57.5085 39.4897 57.5085C39.6886 57.5085 39.9106 57.5185 40.1559 57.5384C40.4078 57.5516 40.6166 57.5748 40.7823 57.608V60.919C40.6299 60.866 40.3879 60.8196 40.0565 60.7798C39.7317 60.7334 39.4168 60.7102 39.1119 60.7102C38.4556 60.7102 37.8656 60.8527 37.342 61.1378C36.8249 61.4162 36.4173 61.804 36.119 62.3011C35.8207 62.7983 35.6715 63.3717 35.6715 64.0213V73H32.0721ZM49.2067 73.2983C47.7152 73.2983 46.4226 72.9702 45.3288 72.3139C44.2351 71.6577 43.3866 70.7396 42.7834 69.5597C42.1868 68.3797 41.8885 67.0009 41.8885 65.4233C41.8885 63.8456 42.1868 62.4635 42.7834 61.277C43.3866 60.0904 44.2351 59.169 45.3288 58.5128C46.4226 57.8565 47.7152 57.5284 49.2067 57.5284C50.6982 57.5284 51.9908 57.8565 53.0845 58.5128C54.1783 59.169 55.0234 60.0904 55.62 61.277C56.2232 62.4635 56.5249 63.8456 56.5249 65.4233C56.5249 67.0009 56.2232 68.3797 55.62 69.5597C55.0234 70.7396 54.1783 71.6577 53.0845 72.3139C51.9908 72.9702 50.6982 73.2983 49.2067 73.2983ZM49.2266 70.4148C50.0353 70.4148 50.7114 70.1927 51.255 69.7486C51.7985 69.2978 52.2029 68.6946 52.468 67.9389C52.7398 67.1832 52.8757 66.3414 52.8757 65.4134C52.8757 64.4787 52.7398 63.6335 52.468 62.8778C52.2029 62.1155 51.7985 61.509 51.255 61.0582C50.7114 60.6075 50.0353 60.3821 49.2266 60.3821C48.398 60.3821 47.7086 60.6075 47.1584 61.0582C46.6148 61.509 46.2071 62.1155 45.9354 62.8778C45.6702 63.6335 45.5376 64.4787 45.5376 65.4134C45.5376 66.3414 45.6702 67.1832 45.9354 67.9389C46.2071 68.6946 46.6148 69.2978 47.1584 69.7486C47.7086 70.1927 48.398 70.4148 49.2266 70.4148ZM72.7024 57.7273L67.2635 73H63.2862L57.8473 57.7273H61.6854L65.1953 69.0724H65.3544L68.8743 57.7273H72.7024ZM81.3356 73.2983C79.8441 73.2983 78.5515 72.9702 77.4577 72.3139C76.364 71.6577 75.5155 70.7396 74.9123 69.5597C74.3157 68.3797 74.0174 67.0009 74.0174 65.4233C74.0174 63.8456 74.3157 62.4635 74.9123 61.277C75.5155 60.0904 76.364 59.169 77.4577 58.5128C78.5515 57.8565 79.8441 57.5284 81.3356 57.5284C82.8271 57.5284 84.1197 57.8565 85.2134 58.5128C86.3072 59.169 87.1523 60.0904 87.7489 61.277C88.3522 62.4635 88.6538 63.8456 88.6538 65.4233C88.6538 67.0009 88.3522 68.3797 87.7489 69.5597C87.1523 70.7396 86.3072 71.6577 85.2134 72.3139C84.1197 72.9702 82.8271 73.2983 81.3356 73.2983ZM81.3555 70.4148C82.1642 70.4148 82.8403 70.1927 83.3839 69.7486C83.9274 69.2978 84.3318 68.6946 84.5969 67.9389C84.8687 67.1832 85.0046 66.3414 85.0046 65.4134C85.0046 64.4787 84.8687 63.6335 84.5969 62.8778C84.3318 62.1155 83.9274 61.509 83.3839 61.0582C82.8403 60.6075 82.1642 60.3821 81.3555 60.3821C80.5269 60.3821 79.8375 60.6075 79.2873 61.0582C78.7437 61.509 78.3361 62.1155 78.0643 62.8778C77.7991 63.6335 77.6665 64.4787 77.6665 65.4134C77.6665 66.3414 77.7991 67.1832 78.0643 67.9389C78.3361 68.6946 78.7437 69.2978 79.2873 69.7486C79.8375 70.1927 80.5269 70.4148 81.3555 70.4148ZM91.7088 73V57.7273H95.3082V73H91.7088ZM93.5185 55.5597C92.9484 55.5597 92.4579 55.3707 92.0469 54.9929C91.6359 54.6084 91.4304 54.1477 91.4304 53.6108C91.4304 53.0672 91.6359 52.6065 92.0469 52.2287C92.4579 51.8442 92.9484 51.652 93.5185 51.652C94.0952 51.652 94.5857 51.8442 94.9901 52.2287C95.401 52.6065 95.6065 53.0672 95.6065 53.6108C95.6065 54.1477 95.401 54.6084 94.9901 54.9929C94.5857 55.3707 94.0952 55.5597 93.5185 55.5597ZM106.636 57.7273V60.5114H97.8562V57.7273H106.636ZM100.024 54.0682H103.623V68.4062C103.623 68.8902 103.696 69.2614 103.842 69.5199C103.994 69.7718 104.193 69.9441 104.439 70.0369C104.684 70.1297 104.956 70.1761 105.254 70.1761C105.479 70.1761 105.685 70.1596 105.87 70.1264C106.063 70.0933 106.208 70.0634 106.308 70.0369L106.914 72.8509C106.722 72.9171 106.447 72.9901 106.089 73.0696C105.738 73.1491 105.307 73.1955 104.797 73.2088C103.895 73.2353 103.083 73.0994 102.36 72.8011C101.638 72.4962 101.065 72.0256 100.64 71.3892C100.223 70.7528 100.017 69.9574 100.024 69.0028V54.0682Z" fill="white"/>
</svg>
